<svg width="130" height="31" viewBox="0 0 130 31" fill="none" xmlns="http://www.w3.org/2000/svg">
<path d="M0.84 14.63C0.84 12.89 1.19 11.37 1.89 10.07C2.61 8.77 3.6 7.77 4.86 7.07C6.14 6.37 7.6 6.02 9.24 6.02C11.34 6.02 13.09 6.57 14.49 7.67C15.91 8.77 16.84 10.32 17.28 12.32H11.82C11.36 11.04 10.47 10.4 9.15 10.4C8.21 10.4 7.46 10.77 6.9 11.51C6.34 12.23 6.06 13.27 6.06 14.63C6.06 15.99 6.34 17.04 6.9 17.78C7.46 18.5 8.21 18.86 9.15 18.86C10.47 18.86 11.36 18.22 11.82 16.94H17.28C16.84 18.9 15.91 20.44 14.49 21.56C13.07 22.68 11.32 23.24 9.24 23.24C7.6 23.24 6.14 22.89 4.86 22.19C3.6 21.49 2.61 20.49 1.89 19.19C1.19 17.89 0.84 16.37 0.84 14.63ZM30.3141 6.08C32.2341 6.08 33.7741 6.72 34.9341 8C36.0941 9.26 36.6741 11 36.6741 13.22V23H31.5741V13.91C31.5741 12.79 31.2841 11.92 30.7041 11.3C30.1241 10.68 29.3441 10.37 28.3641 10.37C27.3841 10.37 26.6041 10.68 26.0241 11.3C25.4441 11.92 25.1541 12.79 25.1541 13.91V23H20.0241V0.8H25.1541V8.51C25.6741 7.77 26.3841 7.18 27.2841 6.74C28.1841 6.3 29.1941 6.08 30.3141 6.08ZM39.2189 14.6C39.2189 12.88 39.5389 11.37 40.1789 10.07C40.8389 8.77 41.7289 7.77 42.8489 7.07C43.9689 6.37 45.2189 6.02 46.5989 6.02C47.7789 6.02 48.8089 6.26 49.6889 6.74C50.5889 7.22 51.2789 7.85 51.7589 8.63V6.26H56.8889V23H51.7589V20.63C51.2589 21.41 50.5589 22.04 49.6589 22.52C48.7789 23 47.7489 23.24 46.5689 23.24C45.2089 23.24 43.9689 22.89 42.8489 22.19C41.7289 21.47 40.8389 20.46 40.1789 19.16C39.5389 17.84 39.2189 16.32 39.2189 14.6ZM51.7589 14.63C51.7589 13.35 51.3989 12.34 50.6789 11.6C49.9789 10.86 49.1189 10.49 48.0989 10.49C47.0789 10.49 46.2089 10.86 45.4889 11.6C44.7889 12.32 44.4389 13.32 44.4389 14.6C44.4389 15.88 44.7889 16.9 45.4889 17.66C46.2089 18.4 47.0789 18.77 48.0989 18.77C49.1189 18.77 49.9789 18.4 50.6789 17.66C51.3989 16.92 51.7589 15.91 51.7589 14.63ZM69.9302 18.65V23H67.3202C65.4602 23 64.0102 22.55 62.9702 21.65C61.9302 20.73 61.4102 19.24 61.4102 17.18V10.52H59.3702V6.26H61.4102V2.18H66.5402V6.26H69.9002V10.52H66.5402V17.24C66.5402 17.74 66.6602 18.1 66.9002 18.32C67.1402 18.54 67.5402 18.65 68.1002 18.65H69.9302ZM72.5477 14.84C72.5477 13.16 72.8777 11.69 73.5377 10.43C74.2177 9.17 75.1477 8.2 76.3277 7.52C77.5277 6.84 78.8877 6.5 80.4077 6.5C82.1277 6.5 83.5877 6.92 84.7877 7.76C85.9877 8.6 86.8277 9.67 87.3077 10.97V6.71H88.6577V23H87.3077V18.71C86.8277 20.03 85.9777 21.12 84.7577 21.98C83.5577 22.82 82.1077 23.24 80.4077 23.24C78.8877 23.24 77.5277 22.9 76.3277 22.22C75.1477 21.52 74.2177 20.54 73.5377 19.28C72.8777 18 72.5477 16.52 72.5477 14.84ZM87.3077 14.84C87.3077 13.42 87.0077 12.17 86.4077 11.09C85.8277 9.99 85.0277 9.15 84.0077 8.57C82.9877 7.97 81.8477 7.67 80.5877 7.67C79.2677 7.67 78.1077 7.96 77.1077 8.54C76.1077 9.1 75.3277 9.92 74.7677 11C74.2077 12.08 73.9277 13.36 73.9277 14.84C73.9277 16.32 74.2077 17.6 74.7677 18.68C75.3277 19.76 76.1077 20.59 77.1077 21.17C78.1277 21.75 79.2877 22.04 80.5877 22.04C81.8477 22.04 82.9877 21.75 84.0077 21.17C85.0477 20.57 85.8577 19.73 86.4377 18.65C87.0177 17.55 87.3077 16.28 87.3077 14.84ZM94.9233 11C95.3833 9.68 96.2133 8.6 97.4133 7.76C98.6333 6.92 100.103 6.5 101.823 6.5C103.343 6.5 104.693 6.84 105.873 7.52C107.073 8.2 108.003 9.17 108.663 10.43C109.343 11.69 109.683 13.16 109.683 14.84C109.683 16.52 109.343 18 108.663 19.28C108.003 20.54 107.073 21.52 105.873 22.22C104.693 22.9 103.343 23.24 101.823 23.24C100.123 23.24 98.6633 22.82 97.4433 21.98C96.2433 21.12 95.4033 20.04 94.9233 18.74V30.68H93.5733V6.71H94.9233V11ZM108.303 14.84C108.303 13.36 108.023 12.08 107.463 11C106.903 9.92 106.113 9.1 105.093 8.54C104.093 7.96 102.933 7.67 101.613 7.67C100.353 7.67 99.2133 7.97 98.1933 8.57C97.1733 9.15 96.3733 9.99 95.7933 11.09C95.2133 12.17 94.9233 13.42 94.9233 14.84C94.9233 16.28 95.2133 17.55 95.7933 18.65C96.3733 19.73 97.1733 20.57 98.1933 21.17C99.2133 21.75 100.353 22.04 101.613 22.04C102.933 22.04 104.093 21.75 105.093 21.17C106.113 20.59 106.903 19.76 107.463 18.68C108.023 17.6 108.303 16.32 108.303 14.84ZM115.109 11C115.569 9.68 116.399 8.6 117.599 7.76C118.819 6.92 120.289 6.5 122.009 6.5C123.529 6.5 124.879 6.84 126.059 7.52C127.259 8.2 128.189 9.17 128.849 10.43C129.529 11.69 129.869 13.16 129.869 14.84C129.869 16.52 129.529 18 128.849 19.28C128.189 20.54 127.259 21.52 126.059 22.22C124.879 22.9 123.529 23.24 122.009 23.24C120.309 23.24 118.849 22.82 117.629 21.98C116.429 21.12 115.589 20.04 115.109 18.74V30.68H113.759V6.71H115.109V11ZM128.489 14.84C128.489 13.36 128.209 12.08 127.649 11C127.089 9.92 126.299 9.1 125.279 8.54C124.279 7.96 123.119 7.67 121.799 7.67C120.539 7.67 119.399 7.97 118.379 8.57C117.359 9.15 116.559 9.99 115.979 11.09C115.399 12.17 115.109 13.42 115.109 14.84C115.109 16.28 115.399 17.55 115.979 18.65C116.559 19.73 117.359 20.57 118.379 21.17C119.399 21.75 120.539 22.04 121.799 22.04C123.119 22.04 124.279 21.75 125.279 21.17C126.299 20.59 127.089 19.76 127.649 18.68C128.209 17.6 128.489 16.32 128.489 14.84Z" fill="#1E71FF"/>
</svg>
