<svg width="45" height="40" viewBox="0 0 45 40" fill="none" xmlns="http://www.w3.org/2000/svg">
<path fill-rule="evenodd" clip-rule="evenodd" d="M16.2165 10.0699C16.7143 10.0237 17.2194 10 17.7304 10C24.5657 10 30.3273 14.2372 32.0921 20.0173C32.2333 20.0092 32.3754 20.0039 32.5183 20.0015C32.4602 20.0006 32.402 20.0001 32.3437 20.0001L32.2966 20.0002L32.2965 20H34.4531H34.5378V19.9994C37.217 19.9592 39.375 18.0161 39.375 15.625C39.375 13.2088 37.1714 11.25 34.4531 11.25C33.5404 11.25 32.6857 11.4708 31.953 11.8556C31.9508 11.1572 31.8315 10.4833 31.6116 9.84857C30.5158 7.02683 27.5016 5 23.9548 5C20.3159 5 17.2376 7.13345 16.2165 10.0699ZM38.2172 21.6323C40.6211 23.2198 42.1875 25.8163 42.1875 28.75C42.1875 33.5825 37.9373 37.5 32.6943 37.5C32.577 37.5 32.4601 37.498 32.3438 37.4941V37.5H17.9538V37.4985C17.8794 37.4995 17.805 37.5 17.7304 37.5C9.49147 37.5 2.8125 31.3439 2.8125 23.75C2.8125 17.6179 7.16756 12.4234 13.1824 10.6507C14.016 6.03008 18.5216 2.5 23.9548 2.5C28.6163 2.5 32.595 5.09855 34.1577 8.75492C34.2557 8.75165 34.3542 8.75 34.4531 8.75C38.7247 8.75 42.1875 11.828 42.1875 15.625C42.1875 18.2074 40.5857 20.4572 38.2172 21.6323ZM32.3438 35H17.9538H17.7919V34.9999L17.7304 35C11.14 35 5.625 30.0494 5.625 23.75C5.625 17.4506 11.14 12.5 17.7304 12.5C23.3211 12.5 28.1379 16.0626 29.4706 20.9889L29.4748 20.9874C29.663 21.6709 29.783 22.3796 29.8277 23.1068C30.704 22.7165 31.6789 22.5 32.6943 22.5C36.2887 22.5 39.375 25.212 39.375 28.75C39.375 32.2632 36.3318 34.9619 32.7698 34.9996V35H32.3438Z" fill="white"/>
</svg>
