<svg width="32" height="32" viewBox="0 0 32 32" fill="none" xmlns="http://www.w3.org/2000/svg">
<rect width="32" height="32" rx="2.5" fill="#83253F"/>
<path d="M18.7 28L13.59 18.725H12.155V28H6.17V3.43H16.215C18.1517 3.43 19.7967 3.76833 21.15 4.445C22.5267 5.12166 23.5533 6.055 24.23 7.245C24.9067 8.41167 25.245 9.71833 25.245 11.165C25.245 12.7983 24.7783 14.2567 23.845 15.54C22.935 16.8233 21.5817 17.7333 19.785 18.27L25.455 28H18.7ZM12.155 14.49H15.865C16.9617 14.49 17.7783 14.2217 18.315 13.685C18.875 13.1483 19.155 12.39 19.155 11.41C19.155 10.4767 18.875 9.74167 18.315 9.205C17.7783 8.66833 16.9617 8.4 15.865 8.4H12.155V14.49Z" fill="white"/>
</svg>
