<svg width="720" height="720" viewBox="0 0 720 720" fill="none" xmlns="http://www.w3.org/2000/svg">
<path d="M380.93 30.1395L515.182 84.5581L630.755 166.605L691.535 360H571.096H380.93H190.764H25.9535L106.546 148.186L225.628 67.5L380.93 30.1395Z" fill="#FF1919"/>
<path d="M337.5 687.767L203.86 636.698L92.9301 551.302L33.4883 360.703L144.643 360.3L337.5 360.703L530.357 361.105L690.698 361.105L674.298 472.546L609.488 576L494.389 653.53L337.5 687.767Z" fill="white"/>
<path d="M360 685.173C539.588 685.173 685.173 539.588 685.173 360C685.173 180.412 539.588 34.8265 360 34.8265C180.412 34.8265 34.8265 180.412 34.8265 360C34.8265 539.588 180.412 685.173 360 685.173Z" stroke="black" stroke-width="35" stroke-linecap="round" stroke-linejoin="round"/>
<path d="M360 452.303C410.979 452.303 452.303 410.979 452.303 360C452.303 309.021 410.979 267.697 360 267.697C309.021 267.697 267.697 309.021 267.697 360C267.697 410.979 309.021 452.303 360 452.303Z" stroke="black" stroke-width="35" stroke-linecap="round" stroke-linejoin="round"/>
<path d="M52.3265 360H267.697" stroke="black" stroke-width="35"/>
<path d="M452.303 360H667.673" stroke="black" stroke-width="35"/>
<ellipse cx="360" cy="359.581" rx="79.5349" ry="78.2791" fill="white"/>
</svg>
