<svg width="147" height="12" viewBox="0 0 147 12" fill="none" xmlns="http://www.w3.org/2000/svg">
<path d="M8.7 11.18C8.37 11.18 8.09 11.125 7.86 11.015C7.64 10.905 7.465 10.725 7.335 10.475C7.065 9.955 6.92 9.07 6.9 7.82C6.89 7.15 6.77 6.595 6.54 6.155C6.31 5.705 5.94 5.48 5.43 5.48H3.795V10.115C3.795 10.255 3.825 10.36 3.885 10.43C3.945 10.49 4.05 10.52 4.2 10.52H5.535V11H0.93V10.52H2.01C2.28 10.52 2.415 10.385 2.415 10.115V1.205C2.415 1.065 2.38 0.964999 2.31 0.904999C2.25 0.835 2.15 0.8 2.01 0.8H0.93V0.32H5.85C6.82 0.32 7.615 0.505 8.235 0.875C8.855 1.245 9.165 1.86 9.165 2.72C9.165 3.46 8.885 4.055 8.325 4.505C7.775 4.955 7.11 5.22 6.33 5.3V5.36C6.9 5.47 7.365 5.735 7.725 6.155C8.095 6.565 8.34 7.27 8.46 8.27C8.53 8.84 8.59 9.255 8.64 9.515C8.7 9.775 8.77 9.96 8.85 10.07C8.94 10.17 9.07 10.22 9.24 10.22C9.67 10.22 9.885 9.68 9.885 8.6H10.26C10.26 9.25 10.165 9.845 9.975 10.385C9.785 10.915 9.36 11.18 8.7 11.18ZM5.25 5C6.09 5 6.685 4.8 7.035 4.4C7.395 3.99 7.575 3.43 7.575 2.72C7.575 2.11 7.41 1.64 7.08 1.31C6.76 0.97 6.32 0.8 5.76 0.8H4.2C4.06 0.8 3.955 0.835 3.885 0.904999C3.825 0.964999 3.795 1.065 3.795 1.205V5H5.25ZM14.4273 10.52H14.9823C15.5723 10.52 16.0023 10.155 16.2723 9.425L19.4973 0.32H19.8723L23.1273 9.86C23.2273 10.11 23.3473 10.285 23.4873 10.385C23.6273 10.475 23.8073 10.52 24.0273 10.52H24.8673V11H20.2173V10.52H21.2073C21.3573 10.52 21.4823 10.485 21.5823 10.415C21.6823 10.335 21.7323 10.245 21.7323 10.145C21.7323 10.015 21.7123 9.905 21.6723 9.815L20.9673 7.82H17.4573L17.0973 8.825C16.9573 9.225 16.8873 9.515 16.8873 9.695C16.8873 9.915 16.9423 10.11 17.0523 10.28C17.1623 10.44 17.3523 10.52 17.6223 10.52H18.5373V11H14.4273V10.52ZM17.6223 7.34H20.8023L19.2423 2.765L17.6223 7.34ZM29.1224 10.52H30.2024C30.4724 10.52 30.6074 10.385 30.6074 10.115V1.205C30.6074 1.065 30.5724 0.964999 30.5024 0.904999C30.4424 0.835 30.3424 0.8 30.2024 0.8H29.1224V0.32H33.4724V0.8H32.3924C32.2524 0.8 32.1474 0.835 32.0774 0.904999C32.0174 0.964999 31.9874 1.065 31.9874 1.205V10.115C31.9874 10.385 32.1224 10.52 32.3924 10.52H33.4724V11H29.1224V10.52ZM40.4557 10.52H41.8957C42.1657 10.52 42.3007 10.385 42.3007 10.115V6.23L39.3907 1.46C39.2407 1.2 39.1057 1.025 38.9857 0.935C38.8657 0.845 38.7057 0.8 38.5057 0.8H37.7257V0.32H42.3757V0.8H41.4757C41.3257 0.8 41.2007 0.835 41.1007 0.904999C41.0007 0.975 40.9507 1.065 40.9507 1.175C40.9507 1.325 40.9757 1.435 41.0257 1.505L43.3957 5.51L44.9257 2.57C44.9757 2.5 45.0307 2.36 45.0907 2.15C45.1507 1.94 45.1807 1.775 45.1807 1.655C45.1807 1.415 45.1107 1.215 44.9707 1.055C44.8407 0.885 44.6357 0.8 44.3557 0.8H43.9057V0.32H47.6257V0.8H47.1907C46.8707 0.8 46.6107 0.9 46.4107 1.1C46.2107 1.29 46.0157 1.555 45.8257 1.895L43.6807 5.975V10.115C43.6807 10.385 43.8157 10.52 44.0857 10.52H45.5257V11H40.4557V10.52ZM50.0142 10.52H50.5692C51.1592 10.52 51.5892 10.155 51.8592 9.425L55.0842 0.32H55.4592L58.7142 9.86C58.8142 10.11 58.9342 10.285 59.0742 10.385C59.2142 10.475 59.3942 10.52 59.6142 10.52H60.4542V11H55.8042V10.52H56.7942C56.9442 10.52 57.0692 10.485 57.1692 10.415C57.2692 10.335 57.3192 10.245 57.3192 10.145C57.3192 10.015 57.2992 9.905 57.2592 9.815L56.5542 7.82H53.0442L52.6842 8.825C52.5442 9.225 52.4742 9.515 52.4742 9.695C52.4742 9.915 52.5292 10.11 52.6392 10.28C52.7492 10.44 52.9392 10.52 53.2092 10.52H54.1242V11H50.0142V10.52ZM53.2092 7.34H56.3892L54.8292 2.765L53.2092 7.34ZM66.8543 1.955H66.7943V9.32C66.7943 9.69 66.8793 9.985 67.0493 10.205C67.2293 10.415 67.4593 10.52 67.7393 10.52H68.2793V11H64.7093V10.52H65.2493C65.5393 10.52 65.7693 10.415 65.9393 10.205C66.1093 9.985 66.1943 9.69 66.1943 9.32V1.205C66.1843 1.065 66.1493 0.964999 66.0893 0.904999C66.0293 0.835 65.9293 0.8 65.7893 0.8H64.7093V0.32H67.5443L72.7493 8.69V2C72.7493 1.63 72.6643 1.34 72.4943 1.13C72.3243 0.91 72.0993 0.8 71.8193 0.8H71.2793V0.32H74.8493V0.8H74.3093C74.0293 0.8 73.7993 0.91 73.6193 1.13C73.4393 1.34 73.3493 1.63 73.3493 2V11.27H72.7493L66.8543 1.955ZM86.4564 10.52H87.5364C87.8064 10.52 87.9414 10.385 87.9414 10.115V1.205C87.9414 1.065 87.9064 0.964999 87.8364 0.904999C87.7764 0.835 87.6764 0.8 87.5364 0.8H86.4564V0.32H90.8064V0.8H89.7264C89.5864 0.8 89.4814 0.835 89.4114 0.904999C89.3514 0.964999 89.3214 1.065 89.3214 1.205V10.115C89.3214 10.385 89.4564 10.52 89.7264 10.52H90.8064V11H86.4564V10.52ZM99.6947 11.27C99.2747 11.27 98.8597 11.18 98.4497 11C98.0497 10.81 97.6997 10.605 97.3997 10.385C96.9797 10.065 96.7297 9.905 96.6497 9.905C96.4497 9.905 96.3197 10.12 96.2597 10.55L96.1997 11.15H95.8547L95.7497 6.41H96.1097C96.1697 7.15 96.3747 7.86 96.7247 8.54C97.0847 9.21 97.5297 9.755 98.0597 10.175C98.5897 10.585 99.1347 10.79 99.6947 10.79C100.515 10.79 101.11 10.59 101.48 10.19C101.86 9.79 102.05 9.31 102.05 8.75C102.05 8.26 101.905 7.875 101.615 7.595C101.335 7.315 100.92 7.065 100.37 6.845L98.0897 5.93C97.2997 5.61 96.7147 5.2 96.3347 4.7C95.9647 4.19 95.7797 3.58 95.7797 2.87C95.7797 1.91 96.0597 1.2 96.6197 0.74C97.1797 0.28 97.8797 0.0499997 98.7197 0.0499997C99.3797 0.0499997 100.11 0.35 100.91 0.95C101.01 1.02 101.11 1.085 101.21 1.145C101.31 1.195 101.4 1.22 101.48 1.22C101.65 1.22 101.75 1.1 101.78 0.859999L101.84 0.32H102.2L102.35 4.22H101.99C101.83 3.5 101.575 2.86 101.225 2.3C100.885 1.74 100.485 1.305 100.025 0.994999C99.5647 0.685 99.0897 0.53 98.5997 0.53C98.0397 0.53 97.5797 0.715 97.2197 1.085C96.8597 1.445 96.6797 1.95 96.6797 2.6C96.6797 3.05 96.7947 3.4 97.0247 3.65C97.2547 3.9 97.5947 4.115 98.0447 4.295L100.94 5.45C101.61 5.72 102.11 6.105 102.44 6.605C102.78 7.105 102.95 7.63 102.95 8.18C102.95 8.71 102.83 9.21 102.59 9.68C102.36 10.15 102 10.535 101.51 10.835C101.03 11.125 100.425 11.27 99.6947 11.27ZM107.661 10.52H108.741C109.011 10.52 109.146 10.385 109.146 10.115V1.205C109.146 1.065 109.111 0.964999 109.041 0.904999C108.981 0.835 108.881 0.8 108.741 0.8H107.661V0.32H112.251V0.8H110.931C110.791 0.8 110.686 0.835 110.616 0.904999C110.556 0.964999 110.526 1.065 110.526 1.205V10.115C110.526 10.385 110.661 10.52 110.931 10.52H112.446C112.976 10.52 113.451 10.4 113.871 10.16C114.291 9.92 114.606 9.57 114.816 9.11C114.976 8.77 115.106 8.41 115.206 8.03C115.316 7.64 115.396 7.31 115.446 7.04C115.496 6.77 115.526 6.6 115.536 6.53H115.911L115.776 11H107.661V10.52ZM120.47 10.52H121.025C121.615 10.52 122.045 10.155 122.315 9.425L125.54 0.32H125.915L129.17 9.86C129.27 10.11 129.39 10.285 129.53 10.385C129.67 10.475 129.85 10.52 130.07 10.52H130.91V11H126.26V10.52H127.25C127.4 10.52 127.525 10.485 127.625 10.415C127.725 10.335 127.775 10.245 127.775 10.145C127.775 10.015 127.755 9.905 127.715 9.815L127.01 7.82H123.5L123.14 8.825C123 9.225 122.93 9.515 122.93 9.695C122.93 9.915 122.985 10.11 123.095 10.28C123.205 10.44 123.395 10.52 123.665 10.52H124.58V11H120.47V10.52ZM123.665 7.34H126.845L125.285 2.765L123.665 7.34ZM137.34 1.67H137.25V9.32C137.25 9.69 137.335 9.985 137.505 10.205C137.685 10.415 137.915 10.52 138.195 10.52H138.735V11H135.165V10.52H135.705C135.985 10.52 136.21 10.415 136.38 10.205C136.56 9.985 136.65 9.69 136.65 9.32V1.205C136.65 1.065 136.615 0.964999 136.545 0.904999C136.485 0.835 136.385 0.8 136.245 0.8H135.165V0.32H138.345L140.79 8.585L143.07 0.32H146.175V0.8H145.095C144.955 0.8 144.85 0.835 144.78 0.904999C144.72 0.964999 144.69 1.065 144.69 1.205V10.115C144.69 10.385 144.825 10.52 145.095 10.52H146.175V11H141.825V10.52H142.905C143.175 10.52 143.31 10.385 143.31 10.115V1.265L140.565 11.18H140.205L137.34 1.67Z" fill="#5795FF"/>
</svg>
