<svg width="256" height="256" viewBox="0 0 256 256" fill="none" xmlns="http://www.w3.org/2000/svg">
<rect width="256" height="256" rx="20" fill="#1E71FF"/>
<path d="M46.12 131.09C46.12 114.27 49.5033 99.5767 56.27 87.01C63.23 74.4433 72.8 64.7767 84.98 58.01C97.3533 51.2433 111.467 47.86 127.32 47.86C147.62 47.86 164.537 53.1767 178.07 63.81C191.797 74.4433 200.787 89.4267 205.04 108.76H152.26C147.813 96.3867 139.21 90.2 126.45 90.2C117.363 90.2 110.113 93.7767 104.7 100.93C99.2867 107.89 96.58 117.943 96.58 131.09C96.58 144.237 99.2867 154.387 104.7 161.54C110.113 168.5 117.363 171.98 126.45 171.98C139.21 171.98 147.813 165.793 152.26 153.42H205.04C200.787 172.367 191.797 187.253 178.07 198.08C164.343 208.907 147.427 214.32 127.32 214.32C111.467 214.32 97.3533 210.937 84.98 204.17C72.8 197.403 63.23 187.737 56.27 175.17C49.5033 162.603 46.12 147.91 46.12 131.09Z" fill="white"/>
</svg>
